<?xml version="1.0" encoding="utf-8"?>
<!-- Generator: Adobe Illustrator 25.4.0, SVG Export Plug-In . SVG Version: 6.00 Build 0)  -->
<svg version="1.1" id="Слой_1" xmlns="http://www.w3.org/2000/svg" xmlns:xlink="http://www.w3.org/1999/xlink" x="0px" y="0px"
	 viewBox="0 0 300 300" style="enable-background:new 0 0 300 300;" xml:space="preserve">
<style type="text/css">
	.st0{fill:#ECECEC;}
	.st1{fill:none;stroke:#ECECEC;stroke-width:13.8511;stroke-miterlimit:10;}
</style>
<g>
	<path class="st0" d="M141.69,145.54c2.95-1.51,5.18-3.18,6.7-5.01c2.71-3.26,4.07-7.57,4.07-12.93c0-5.2-1.34-9.67-4.03-13.41
		c-4.47-6.08-12.06-9.2-22.77-9.36H83.2v87.86h39.59c4.46,0,8.6-0.4,12.41-1.19c3.81-0.79,7.12-2.27,9.93-4.41
		c2.49-1.87,4.56-4.17,6.22-6.91c2.61-4.13,3.91-8.8,3.91-14.01c0-5.05-1.14-9.34-3.42-12.88
		C149.56,149.76,146.17,147.17,141.69,145.54z M100.72,120.09h19.11c4.21,0,7.67,0.46,10.38,1.37c3.15,1.31,4.72,4.01,4.72,8.11
		c0,3.7-1.19,6.27-3.57,7.72c-2.38,1.45-5.48,2.18-9.29,2.18h-21.35V120.09z M130.95,175.88c-2.12,1.03-5.09,1.55-8.9,1.55h-21.33
		v-23.43h21.63c3.77,0.04,6.7,0.54,8.78,1.49c3.73,1.71,5.6,4.85,5.6,9.42C136.73,170.32,134.8,173.98,130.95,175.88z"/>
	<path class="st0" d="M220.24,151.35c-0.76-4.92-2.43-9.24-5-12.97c-2.85-4.23-6.46-7.32-10.84-9.28
		c-4.38-1.96-9.29-2.94-14.75-2.94c-9.19,0-16.67,2.9-22.43,8.7c-5.76,5.8-8.64,14.13-8.64,25c0,11.6,3.19,19.97,9.57,25.12
		c6.38,5.15,13.75,7.72,22.1,7.72c10.12,0,17.98-3.05,23.6-9.15c3.61-3.84,5.64-7.61,6.08-11.34h-16.74
		c-0.98,1.84-2.1,3.28-3.38,4.32c-2.34,1.92-5.37,2.88-9.11,2.88c-3.52,0-6.54-0.79-9.04-2.36c-4.12-2.53-6.31-6.94-6.56-13.24
		h45.69C220.87,158.38,220.69,154.23,220.24,151.35z M175.5,152.98c0.6-4.08,2.05-7.32,4.37-9.71c2.32-2.39,5.58-3.58,9.79-3.58
		c3.87,0,7.11,1.13,9.73,3.38c2.61,2.26,4.07,5.56,4.37,9.91H175.5z"/>
	<rect x="168.47" y="107.68" class="st0" width="42.45" height="13.23"/>
</g>
<circle class="st1" cx="151.66" cy="150.66" r="124.66"/>
</svg>
