<?xml version="1.0" encoding="utf-8"?>
<!-- Generator: Adobe Illustrator 25.4.0, SVG Export Plug-In . SVG Version: 6.00 Build 0)  -->
<svg version="1.1" id="Слой_1" xmlns="http://www.w3.org/2000/svg" xmlns:xlink="http://www.w3.org/1999/xlink" x="0px" y="0px"
	 viewBox="0 0 300 300" style="enable-background:new 0 0 300 300;" xml:space="preserve">
<style type="text/css">
	.st0{fill:#ECECEC;}
</style>
<g>
	<g>
		<path class="st0" d="M149.32,268c-20.48,0-40.57-5.42-58.35-15.71L45.38,268l9.37-48.28C40.06,199.6,32.32,175.92,32.32,151
			c0-64.51,52.48-117,117-117c64.52,0,117,52.48,117,117C266.32,215.51,213.84,268,149.32,268z M93.06,233.16l3.53,2.21
			c15.89,9.96,34.12,15.23,52.73,15.23c54.92,0,99.59-44.68,99.59-99.6c0-54.91-44.68-99.59-99.59-99.59
			c-54.92,0-99.59,44.68-99.59,99.59c0,22.34,7.32,43.51,21.16,61.22l2.44,3.13l-5.12,26.38L93.06,233.16z"/>
	</g>
	<path class="st0" d="M90.25,106.05c0,0,6.86-12,12.46-12.69c5.6-0.69,12.8-0.69,14.75,2.97c1.94,3.66,10.63,24.92,10.63,24.92
		s1.48,3.66-0.8,7.2c-2.28,3.54-7.42,8.69-7.42,8.69s-2.86,3.66,0,7.54c2.86,3.88,7.29,11.03,16.46,20.19
		c9.15,9.16,26.74,15.7,26.74,15.7s2.52,0.34,4.11-1.26c1.6-1.6,10.29-12.46,10.29-12.46s2.79-3.6,7.43-1.48
		c4.63,2.12,24.68,12.11,24.68,12.11s2.35,0.86,2.35,4.4c0,3.54-1.43,12.21-4.37,15.14c-2.93,2.93-11.5,11.97-24.38,11.97
		c-12.88,0-43.55-10.48-59.89-26.82c-16.34-16.35-30.86-32.92-34.28-48C85.57,119.08,86.02,112.26,90.25,106.05z"/>
</g>
</svg>
