<?xml version="1.0" encoding="utf-8"?>
<!-- Generator: Adobe Illustrator 25.4.0, SVG Export Plug-In . SVG Version: 6.00 Build 0)  -->
<svg version="1.1" id="Слой_1" xmlns="http://www.w3.org/2000/svg" xmlns:xlink="http://www.w3.org/1999/xlink" x="0px" y="0px"
	 viewBox="0 0 300 300" style="enable-background:new 0 0 300 300;" xml:space="preserve">
<style type="text/css">
	.st0{fill:#ECECEC;}
</style>
<g>
	<g>
		<g>
			<path class="st0" d="M193.37,260.09h-89.96c-39.93,0-72.41-32.48-72.41-72.41v-79.28C31,68.48,63.49,36,103.41,36h89.96
				c39.92,0,72.41,32.48,72.41,72.41v79.28C265.78,227.61,233.29,260.09,193.37,260.09z M103.41,52.09
				c-31.06,0-56.32,25.26-56.32,56.32v79.28c0,31.05,25.26,56.32,56.32,56.32h89.96c31.05,0,56.31-25.26,56.31-56.32v-79.28
				c0-31.05-25.26-56.32-56.31-56.32H103.41z"/>
		</g>
		<g>
			<path class="st0" d="M148.39,212.5c-35.54,0-64.45-28.91-64.45-64.45c0-35.54,28.91-64.45,64.45-64.45
				c35.54,0,64.45,28.91,64.45,64.45C212.84,183.59,183.93,212.5,148.39,212.5z M148.39,99.68c-26.67,0-48.36,21.69-48.36,48.36
				c0,26.67,21.7,48.36,48.36,48.36c26.67,0,48.36-21.7,48.36-48.36C196.75,121.37,175.06,99.68,148.39,99.68z"/>
		</g>
		<g>
			<path class="st0" d="M225.23,85.57c0,7.39-5.98,13.37-13.37,13.37c-7.39,0-13.38-5.98-13.38-13.37c0-7.39,5.99-13.37,13.38-13.37
				C219.24,72.2,225.23,78.19,225.23,85.57z"/>
		</g>
	</g>
</g>
</svg>
